<svg id="logo" width="40vw" height="100%" viewBox="0 0 88 88" fill="none" xmlns="http://www.w3.org/2000/svg"><path fill-rule="evenodd" clip-rule="evenodd" d="M69.2253 60.4327V60.0872L69.1488 59.7417 69.0716 59.3959 68.9564 59.0504 68.7648 58.7049 68.6497 58.5897 68.3422 58.3593 68.1885 58.2825 67.9968 58.2442H67.6511L67.536 58.2825 67.3056 58.4361 67.152 58.6665 67.0369 58.9736 67.1136 59.204 67.2672 59.4343 67.6511 59.8568 67.9582 60.2408 68.0734 60.4711 68.112 60.7015 68.3036 60.7783v.2303L68.3808 61.2006 68.2271 61.2774H67.8817L67.536 61.1622H67.3056L66.9985 61.4693 66.7681 61.8916 67.2288 62.3907 67.344 62.5059 67.6511 62.6595 67.8431 62.6978 68.0734 62.7746 68.2657 62.7362 68.4194 62.6978 68.4959 62.5827 68.6876 62.3139 68.8034 62.1604 68.9564 62.0452 69.1867 61.9684 69.3025 61.93 69.4176 61.8149 69.0716 61.0086 69.2253 60.4327zM66.6145 63.0052 66.4994 63.2739 67.0753 64.0801 67.3056 64.3105 67.536 64.5025 67.8817 64.6944 68.2271 64.8096 68.6876 64.848 68.8034 64.7328 68.9185 64.5409 69.0336 64.1185 68.5725 63.773 68.0355 63.4275 67.4208 63.1588 66.8065 62.9284 66.7297 63.0436 66.6145 63.0052zm3.2636 1.4205L70.0318 65.0016 70.0698 65.3087V65.6159L70.2621 65.6543 70.3772 65.5391 70.4537 65.4239 70.5309 65.2319V64.656L70.4923 64.3873 70.4158 63.3891 70.4537 62.89 70.5309 62.3139 70.646 61.7765 70.7998 61.239 71.03 60.7015 71.2989 60.164 71.4905 60.1256 71.7208 60.164 71.7594 60.3176 71.8366 60.4711 71.9896 60.7783 72.1433 61.0854 72.1819 61.2774V61.4309L72.2205 61.5077 72.3357 61.5461 72.4508 61.047 72.5273 60.5479v-.2303L72.4508 59.8568 72.3357 59.6649 72.2585 59.5881 72.1433 59.4729 71.8366 59.3576 71.5291 59.2808H71.3754L71.2603 59.3192 71.1451 59.3959 70.9914 59.4729 70.7998 59.6649 70.6074 59.972 70.4537 60.2792 70.1469 61.0086 69.8781 62.3523 69.9167 62.6211V62.89L69.8781 63.3891 69.8395 63.9266V64.1953L69.8781 64.4257zM69.9167 65.9616 69.8016 66.1918 69.8395 66.8062 70.2621 67.1902 70.4923 67.4973 70.7226 67.766 70.9528 67.9196 71.1838 68.0348H71.414L71.5291 67.9964 71.6056 67.8812 71.6828 67.766 71.7594 67.6125 71.8366 67.3821 71.8745 67.1134 71.414 66.8446 70.9149 66.5375 70.4537 66.2685 70.0318 65.9616H69.9167zm5.9892-1.2672L75.6756 64.4257 75.4068 64.1953 75.1379 63.9266 75.0614 63.8114 74.9849 63.6578 75.0993 63.3507 75.3688 62.813 75.7528 62.0068 75.637 61.6229 75.2537 61.4309 75.1379 61.4693 75.0228 61.5077 74.8311 61.6997 74.6388 61.93 74.4851 62.2372 74.1783 62.89 73.9481 63.4275 73.6792 63.4659 73.449 63.4275 73.2953 63.3507 73.1801 63.2739 73.065 63.1203 72.9878 62.9668 72.8348 62.6211 72.7196 62.4675 72.6038 62.3523 72.5273 62.2372 72.4887 62.0452 72.3357 62.0068H72.1819L72.0282 62.0452 71.9131 62.122 71.6828 62.4291 71.6056 62.6595 71.5291 62.89 71.4905 63.1203 71.4526 63.3507V63.5043L71.4905 63.6578 71.7208 63.7346H71.8745L72.0282 63.6194 72.1433 63.4659H72.2585L72.4508 63.6578 72.7962 64.2337 72.9499 64.2721 73.1029 64.3105H73.2953L73.449 64.2721H73.5641L73.6792 64.3105 73.7943 64.5025 73.5641 65.1551 73.449 65.7694 73.3718 66.3839 73.2953 66.9982 73.3339 67.1518V67.4973L73.2953 67.6893 73.4869 67.8044 73.602 67.6893 73.8329 67.6125 74.1783 66.2301 74.5623 64.656 74.6002 64.6176 74.8697 64.7328 75.1379 64.9248 75.4454 65.1168 75.7907 65.3471V65.6926L75.9059 66.0766 75.9831 66.4607 76.0982 66.8446 75.8679 66.9982 75.5991 67.075 75.5605 67.1902 76.0982 67.3437 76.2133 67.1902 76.367 67.2669 76.4822 67.075 76.5587 66.9214 76.5973 66.7294 76.6352 66.5759V66.1918L76.5587 65.8462 76.405 65.5007 76.2519 65.1935 76.0596 64.9248 75.9059 64.6944z" fill="#004098"/><path fill-rule="evenodd" clip-rule="evenodd" d="M17.1239 67.9196 17.2007 68.0348 17.0855 68.2267 17.0087 68.4187 16.932 68.649 16.8936 68.8794 16.8168 69.4555V70.0313L16.8936 71.1831 16.932 72.0661 16.4712 72.4501 15.9337 71.759 15.7034 71.4135 15.5498 71.0679V70.7608L15.6266 70.2617 15.7802 69.6472 15.9721 68.9562 16.3945 67.6509 16.7016 66.8062V66.7678H16.3177L15.9337 66.8062 14.4746 66.9598 14.1291 66.9982 13.7452 66.9598 13.5916 66.9214 13.4764 66.883 12.9389 66.5759 12.6702 66.4607 12.4015 66.3839 12.1711 66.2685 12.056 66.1918 11.9792 66.0766 11.864 65.9616 11.7872 65.7694H11.864L12.0176 65.8078 12.3247 65.9232 12.7086 66.0766 12.9389 66.1534 13.3613 66.2301H14.2443L14.7436 66.1534 15.665 66 16.548 65.7694 16.8552 65.6926 17.1239 65.5391 17.3543 65.3471 17.4311 65.2319 17.4695 65.1168 17.1623 64.9632 16.932 64.7712 16.6632 64.5409 16.4328 64.2337 16.5096 63.8114 16.548 63.3891 17.0471 63.4275 17.3159 63.4659 17.5078 63.5426 17.7382 63.6578 17.9686 63.8114 18.4679 64.1953 18.7366 64.3873 19.0054 64.5409 19.2357 64.6176 19.4277 64.656 19.8116 64.5793 20.1955 64.3873 20.5794 64.1569 20.9634 63.8498 21.3857 63.581 21.7698 63.3123 22.1537 63.1203 22.3457 63.0435 22.5376 63.0051 23.1135 63.2739 23.1519 63.8498 22.5376 64.3105 21.885 64.6944 21.2321 65.0016 20.925 65.1935 20.6946 65.3855V65.4623L21.3473 66.115 21.5778 66.4991 21.6546 66.691 21.6162 66.8446 21.5778 67.0366 21.3473 67.1902H21.1937L21.0401 67.1518 20.8482 67.075 20.4259 66.883 20.0036 66.6143 19.5812 66.3839 19.0437 66 18.8134 66.115 18.5446 66.1918 17.8918 66.3455 17.5846 66.4223 17.3159 66.5375 17.1623 66.6527 17.1239 66.7294V66.8062L17.3159 66.9598 17.4695 67.1902V67.3437L17.3159 67.7277 17.1239 67.9196z" fill="#004098"/><path fill-rule="evenodd" clip-rule="evenodd" d="M28.1816 76.7504 27.9131 76.712H27.6825L27.2218 76.6737 26.7611 76.5969 26.5308 76.5201 26.262 76.4047 26.3388 76.2897 26.3772 76.2129 26.6843 76.2513H26.9915L27.2602 76.2129 27.4906 76.1362 28.0281 75.9824H28.5657L28.8729 75.3297 29.0265 74.9842 29.1416 74.6386 29.1032 74.6003 28.7961 74.677 28.4122 74.7922H28.22L27.9898 74.7538 27.7977 74.7154 27.6057 74.5619 27.4906 74.5235 27.337 74.2932V73.986L27.3754 73.8324 27.5289 73.5253 27.7593 73.2182l.8064-.8065L28.7961 72.143 28.9497 71.9127V71.8743L28.5657 71.7975 28.297 71.7207 28.1816 71.6439 28.1048 71.5671 28.0665 71.4136V71.2216L28.1432 71.0296 28.1816 70.9528 28.2586 70.8761 28.4506 70.7609 28.6809 70.6841 28.9497 70.6457H29.18L29.7175 70.6073 30.2166 70.5689 30.3702 70.4921 30.5238 70.377l.2303-.384L31.1765 69.1482 31.5604 69.225 31.7141 69.3018 31.9061 69.4171 31.8677 69.6473V70.0314L31.9061 70.1466 31.9829 70.2618 32.0597 70.3386 32.4436 70.5689 32.674 70.7225 32.7508 70.7993 32.8275 70.9145 32.9811 71.2216 32.7124 71.4903 32.482 71.6055 32.2516 71.6823H32.0597L31.5988 71.6439 31.3302 71.6055 30.9845 71.6439 30.6774 71.7591 30.3702 71.9127 30.0631 72.143 29.7943 72.4117 29.2568 73.026 28.7961 73.5637V73.6405L29.0648 73.6789H29.3336L29.5256 73.6405 29.7175 73.5253 29.9095 73.3717 30.0247 73.1798 30.255 72.6421 30.4854 72.6805 30.7925 72.7959 30.7541 72.9876V73.1414L30.7925 73.2566 30.8693 73.3717 30.9845 73.5253 31.1381 73.7941 30.9845 73.986 30.5238 74.2163 30.2934 74.2547 30.2166 74.4083 30.1015 74.5619 29.8711 74.9074 29.6407 75.2913 29.564 75.4833V75.6753L29.6024 75.8288 29.7943 75.8672 29.9863 75.944 30.1015 76.0208 30.1782 76.1745 30.1015 76.5585 29.8327 76.6353 29.564 76.6737 29.3336 76.7504 29.1416 76.7888 29.0265 76.9808 28.9497 77.2112 28.8345 77.6719 28.6809 78.171 28.5657 78.4013 28.4506 78.5933 28.3354 78.7085 28.2586 78.7469 28.1816 78.8237 28.22 78.9004l2.7261 1.3056L31.0229 80.2828 31.0613 80.398V80.5131L31.0229 80.6667 30.639 80.8971 30.4086 80.8587 30.1399 80.8203 29.4488 80.7435 29.1032 80.6667 28.7961 80.5899 28.489 80.4747 28.2586 80.3212 26.3004 78.4781 25.6094 77.8638 25.3406 77.7103 25.0335 77.5567 24.7262 77.4799 24.3806 77.4031 23.728 77.2879 23.4208 77.2112 23.1521 77.096V76.904L23.2673 76.8272 23.3824 76.7888 23.6128 76.7504 23.8815 76.712 23.9583 76.6737 24.0735 76.5969V75.6369L24.1503 75.3297 24.2655 75.0994 24.419 74.869 24.611 74.6386 24.8413 74.3699 25.1103 73.986 25.1871 73.8708 25.2255 73.7173V73.4101L25.1871 73.1414 25.2255 72.9876 25.3022 72.8727 25.4174 72.7959H25.6862L25.8397 72.8727 26.1469 72.9876l.2303.1922L26.4156 73.4485 26.3772 73.6021 26.3388 73.8324 26.0701 73.986 25.8397 74.1396 25.571 74.2932 25.3406 74.4467 25.1103 74.6386 24.9183 74.869 24.7646 75.2145 24.6878 75.6369 24.9567 76.4047 25.1487 76.8656 25.3022 77.1344 25.4558 77.2495 25.7246 77.4415 26.5308 77.9022 27.2986 78.3629 27.6825 78.5165 27.6441 78.4781V78.2862L27.6825 78.0558 27.9898 77.2112 28.1816 76.7504z" fill="#004098"/><path fill-rule="evenodd" clip-rule="evenodd" d="M42.695 81.0122 42.6566 80.8587 42.6182 80.6283V80.1292L42.9253 79.9756 43.2709 79.7837 43.4628 79.7453 43.6164 79.6685h.192L44.0003 79.7069V79.5533L44.1155 79.5147V78.9772L43.77 78.9004h-.192L43.5012 78.9388 43.4628 78.9772h-.6143L42.9253 77.9022 43.1557 77.5951 43.4244 77.3263 43.7316 77.0576 44.0003 76.7889 44.3075 76.3666 44.6146 75.8673 44.8833 75.4066 45.0755 74.9459 45.1523 74.7155 45.2291 74.2548 45.1523 73.7941 45.1139 73.6021 45.0371 73.4102 44.8065 73.103 44.653 72.9877 44.4994 72.8727 44.3075 72.7959 44.1155 72.7575h-.4223L43.2325 72.9111 43.0021 73.0261 42.6182 73.3334 42.1959 73.6021 41.8119 73.8709v.2303H41.7351L41.6584 74.178 41.5046 74.3316 41.4662 74.5236V74.7155L41.5432 74.7539 41.6584 74.7923 42.0039 74.6387 42.311 74.4468 42.8869 74.0245 43.2325 73.8325 43.578 73.6789 44.0003 73.5637H44.5378L44.7298 73.7941 44.7682 73.9861V74.178L44.6914 74.6003 44.5764 75.0227 44.3843 75.445 44.1539 75.8289 43.9235 76.1746 43.6548 76.4431 43.4244 76.6353 43.2709 76.5201 43.3476 76.2514 43.5396 75.944 43.6164 75.7905 43.7316 75.6753 43.8468 75.5985 44.0003 75.5602v-.6143L43.8084 74.8307 43.7316 74.7539 43.6932 74.6387H43.4628V74.4468L43.0021 74.2548H42.9253L42.8869 74.4468 42.8485 74.6003 42.7334 74.8691 42.5798 75.0994 42.4262 75.253 42.2726 75.445 42.1575 75.5985 42.0807 75.7905V76.0209L42.1575 76.1362 42.503 76.3666 42.6182 76.4431 42.6566 76.5585V76.6737L42.5414 76.8273V76.8657L42.503 76.9808 42.3494 77.1344 42.1959 77.2112H41.9271L41.8887 77.2879 41.8119 77.3648H41.6968L41.62 75.7521 41.2742 75.5985H41.0823L40.9287 75.7521 40.8135 75.944 40.66 76.2514 40.5448 76.5585 40.468 76.9041 40.4296 77.2112V77.5183L40.468 77.6719 40.5448 77.7871 40.5832 77.8638 40.7367 77.9022V78.0558L41.0823 78.2094 41.2359 78.171 41.351 78.1326 41.4278 78.0174 41.5046 77.9406 41.8887 78.0558H42.3878L42.4262 78.3629 42.3878 78.6701 42.311 78.9388 42.1959 79.2076 42.0423 79.3996 41.6584 79.7069 41.4278 79.7453V79.9372L41.5046 80.1676 41.5816 80.2444 41.7735 80.398 41.9655 80.5899 41.8119 81.281 41.4278 81.3578 41.0439 81.473 40.7367 81.6265 40.5832 81.6649 40.3912 81.7033V81.8569L40.4296 81.9721 40.5448 82.0872 40.6216 82.2024 40.7367 82.3944 42.0039 82.1256 42.6566 82.0488H43.0021L43.3476 82.0872 43.6548 82.1256 43.9235 82.2408 44.2307 82.2792H44.5378L44.653 82.2408 44.7682 82.164 44.9219 82.0105 45.0755 81.8185 45.1523 81.7417 45.2675 81.7033 45.2291 81.5113 45.1907 81.3962 44.9603 81.1658 44.845 81.089 44.6914 81.0506 44.3075 81.0122H42.695zM40.5448 78.5933H40.5064L40.3144 78.7469 40.1609 78.9388 39.8921 79.3228 39.6234 79.7837 39.4314 80.206 39.201 80.6667 38.9323 81.089 38.6251 81.473 38.433 81.6265 38.2412 81.7801 38.2796 81.3194 38.433 80.4747 38.5867 80.1292 38.8555 79.3996 39.0859 78.7085V78.4397L39.0475 78.2094 38.9707 77.979v-.2303L39.393 76.213 39.5466 76.0209 39.7001 75.7905 39.9689 75.445 40.1225 75.253 40.2376 75.0611 40.3144 74.8307V74.562L40.1225 74.37H39.8153L39.5466 74.4852 38.318 74.9459 38.0491 75.0611 37.8187 75.253 37.6267 75.445V75.8289l.192.2303L38.0107 76.0976H38.2028L38.7403 75.944 39.0859 75.9056l-.384 1.6511L38.5484 77.6335H38.3946L38.0491 77.7103 37.7035 77.7487 37.3964 77.9022 37.3196 78.0174 37.2428 78.171 37.1661 78.4013 37.0893 78.6701 37.0509 78.9388V79.1692L37.1277 79.3996 37.1661 79.4763 37.2428 79.5147 37.358 79.5917H37.4732L37.7035 79.6301 38.2028 79.5147 38.51 79.1692 38.5484 79.246V79.6301L38.4714 79.9756 38.2796 80.6667 38.1644 81.0122 38.0875 81.3962 38.0107 82.2408 38.2028 82.3944 38.3946 82.356 38.5484 82.2408 38.8939 81.8953 39.201 81.3962 39.5466 80.8203 40.1225 79.6301 40.5448 78.7469V78.5933zM37.8187 79.0924 37.6651 79.1308 37.5884 78.9388V78.7853L37.6267 78.6317 37.7419 78.5165 38.2028 78.1326 38.3564 78.171 38.4714 78.2094 38.3564 78.4781 38.2028 78.7085 38.0107 78.9388 37.8187 79.0924z" fill="#004098"/><path fill-rule="evenodd" clip-rule="evenodd" d="M52.2551 75.1762 52.6006 75.0994 52.9077 75.0226H53.1765L53.4452 75.061 53.6372 75.1762 53.7907 75.3681 53.9443 75.5985 54.0595 75.944 53.9059 76.4431 53.6755 76.9808 53.5604 77.2112 53.4068 77.4415 53.2149 77.6335 53.0229 77.7871 53.0613 77.8638 53.1381 77.9022 53.4068 77.8638 53.6372 77.7871 54.0979 77.5951 54.7891 77.4031 55.3266 77.2879H55.7873L56.2864 77.3263 56.3248 77.5183V77.8638L56.2864 78.0174 55.9792 78.6317 55.5569 78.6701 54.6353 78.9004 54.213 79.054 53.33 79.3996 52.6006 79.7453 52.2167 79.9756 52.0247 80.0524 51.8327 80.0908 51.4104 80.3596 50.9879 80.6667 50.604 80.8971 50.3736 80.9738 50.1049 81.0122 49.8361 80.7435 49.7209 80.5515 49.6442 80.2828 50.0281 79.7453 50.4504 79.246 50.6808 79.0924 50.9111 78.9772 51.1799 78.9004 51.4488 78.7853 51.7174 78.6317 51.9479 78.4781 52.2551 78.171 52.447 77.7871 52.639 77.3263 52.8309 76.9808 52.8693 76.7504v-.2303L52.7925 76.4431 52.6006 76.5585 52.447 76.6737 52.1399 76.9808 51.9479 77.1344 51.7559 77.2112 51.4872 77.2495H51.2183L51.0263 77.096 50.9879 76.9808 50.9111 76.8272 50.9879 76.5585 51.1031 76.3281 51.2567 76.1362 51.4488 75.944 51.8711 75.5985 52.0631 75.4065l.192-.2303z" fill="#004098"/><path fill-rule="evenodd" clip-rule="evenodd" d="M63.6966 69.5704 63.8886 69.801 63.9269 69.9546 63.8886 70.0698V70.2617L63.735 70.5688 63.6582 70.684 63.3894 70.876l-.2303.2303L62.8903 71.3367 62.8136 71.4519 62.6984 71.6054 62.6216 71.9894 62.66 72.2197 62.6984 72.5269 62.8136 72.9876 62.8903 73.1413 63.2359 73.026H63.543L63.8118 73.1029 64.0421 73.1797 64.5412 73.4485 64.7716 73.5253 65.0789 73.602H66.0771L67.0369 73.5636 67.9969 73.4869 69.0337 73.4485 69.1102 73.6404 68.9185 73.7556 68.7648 73.9092 68.6876 74.0628 68.5725 74.2163 68.4574 74.5235 68.3809 74.6386 68.2657 74.7922 67.9197 75.0226 67.5744 75.1761 67.2289 75.2529H66.8834L66.5379 75.2145 66.1923 75.0994 65.8468 74.9458 65.4628 74.7538 64.81 74.3699 64.1573 73.9476 63.543 73.5636 63.2359 73.4101 62.9671 73.3333 62.8136 73.4485 62.9287 73.9092 63.0055 74.3315 62.9287 75.0994 62.6984 75.7904 62.468 76.5201 62.3912 76.8272 62.3144 77.0192 62.1993 77.1728 62.0841 77.3647 61.9303 77.4799 61.7386 77.5951h-.3842L61.2009 77.5183 61.2777 77.4799 61.6618 76.4815 61.9689 75.5601 62.0457 75.0994 62.0841 74.6003V74.0628L62.0073 73.4485 62.1225 73.3717 61.7769 72.8342 61.508 73.1029 61.2393 73.2949 60.9321 73.4869 60.625 73.602 60.3562 73.4101 60.2411 73.2949 60.1643 73.1029 60.8937 72.2581 61.2777 71.7974 61.6234 71.3367 61.4696 71.0679 61.3928 70.7608 61.2393 70.2233 61.1241 69.6472 60.9321 69.0714 60.8553 68.8794 60.7402 68.6875 60.4714 68.3419 60.2027 68.0348 60.1259 67.8812 60.0875 67.766V67.4973L60.5482 67.2669 60.7018 67.3437 61.0857 67.4973 61.2393 67.6125 61.4696 67.9196 61.6234 68.2268 61.7769 68.6107 61.8537 69.033 61.9689 69.801 62.0841 70.4537 62.2377 70.5304V70.4537L62.5832 70.3001 62.9287 70.0314 63.3127 69.7626 63.6966 69.5704z" fill="#004098"/><path fill-rule="evenodd" clip-rule="evenodd" d="M44.0001.0 41.735.0765234 39.5081.230248 38.3945.383295l-1.075.153724-1.1134.153724-2.1502.460497-2.0731.53769-1.0752.30745L29.9094 2.34175l-1.0366.34538-.9984.38397L26.8762 3.49367 25.9163 3.91557 24.9181 4.33814 23.9966 4.83723 23.0368 5.33633 22.1154 5.83542 21.1938 6.37312 19.4277 7.52504 18.5446 8.13926 17.6998 8.75348 16.0105 10.0591 15.2043 10.7499 14.4363 11.4413 12.9006 12.9l-1.4591 1.5359L10.7504 15.2038 10.0594 16.0103l-1.30538 1.689L8.13953 18.5444 7.52524 19.4275 6.37353 21.1934 5.83603 22.1148 5.33687 23.0364 4.33848 24.9561 3.91617 25.9161 3.45548 26.8759l-.76781 1.9964-.69108 2.0733L1.3823 33.019l-.23052 1.075-.230383 1.0366-.230383 1.0752-.153521 1.1134-.153589 1.0749-.153589 1.1136-.1535883 2.2268-.0383295 1.152L0 43.9999.0383972 45.1516.0767267 46.2652.230315 48.4919l.307178 2.227.153521 1.075L1.3823 55.019l.61429 2.0734.3455 1.0366L2.68767 59.1272l.76781 1.9966L3.91617 62.122 4.33848 63.082 4.83778 64.0418 5.33687 64.9632 5.83603 65.9232 6.37353 66.8062 6.94935 67.7277 7.52524 68.6107 8.13953 69.4937 8.75402 70.3386l.65268.8446L10.0594 71.9894 11.4415 73.6021 12.9006 75.1378 13.6685 75.8672 14.4363 76.5585 15.2043 77.2879 16.0105 77.9406 16.8552 78.6317l.8446.6143L18.5446 79.8988 19.4277 80.4747 20.3107 81.089 21.1938 81.6265l1.843 1.075L23.9966 83.2008 24.9181 83.6615 25.9163 84.1222 26.8762 84.5445 27.8744 84.9668 28.8728 85.3507 29.9094 85.6963 30.9076 86.042 31.9828 86.3491 34.0559 86.8866 35.1311 87.117 36.2061 87.3089 37.3195 87.5009 38.3945 87.6545l2.227.2303L41.735 87.9616 42.8868 88h2.2653L46.2655 87.9616 47.3789 87.8848l2.227-.2303L50.7192 87.5009 52.8693 87.117 53.9443 86.8866 55.0193 86.6179 56.0561 86.3491 57.0927 86.042 58.1294 85.6963 59.1277 85.3507 60.1259 84.9668l1.9966-.8446L64.0421 83.2008 64.9636 82.7015 65.9236 82.164 66.8066 81.6265 67.728 81.089 68.6111 80.4747 69.4942 79.8988 70.3386 79.246 71.1838 78.6317 71.9897 77.9406 72.7962 77.2879 73.6021 76.5585 74.37 75.8672 75.868 74.3699 76.5587 73.6021 77.2881 72.7959 77.9409 71.9894 78.6323 71.1832 79.2465 70.3386 79.8993 69.4937 80.475 68.6107 81.0892 67.7277 81.6269 66.8062 82.1646 65.9232 82.7023 64.9632 83.2014 64.0418 84.1224 62.122 84.9668 60.1256 85.3129 59.1272 85.6968 58.129 86.0422 57.0924 86.3497 56.0556 86.6178 55.019 86.8867 53.9441 87.1176 52.8691 87.5009 50.7189 87.6546 49.6053l.2303-2.2268L87.9621 46.2652 88 45.1516V42.8865L87.9621 41.7345 87.8849 40.6211l-.2303-2.227L87.5009 37.3192 87.3092 36.2058 87.1176 35.1306 86.8867 34.094 86.6178 33.019 86.3497 31.9822 86.0422 30.9456 85.6968 29.909 85.3129 28.8723 84.9668 27.8741 84.5449 26.8759 84.1224 25.9161 83.2014 23.9962 82.7023 23.0364 81.6269 21.1934 81.0892 20.3104 80.475 19.4275 79.8993 18.5444 79.2465 17.6993 78.6323 16.8548 77.9409 16.0103 77.2881 15.2038 76.5587 14.4359 75.868 13.6679 74.37 12.1706 73.6021 11.4413 71.9897 10.0591 71.1838 9.4063 70.3386 8.75348 69.4942 8.13926 68.6111 7.52504 67.728 6.94942 66.8066 6.37312 65.9236 5.83542 64.9636 5.33633 64.0421 4.83723 63.0823 4.33814 62.1225 3.91557 60.1259 3.0711 59.1277 2.68713l-.9983-.34538-1.0367-.34537-1.0366-.30745-1.0368-.26884-1.075-.26885L51.7944.690743 50.7192.537019 48.4925.230248 46.2655.0765234 45.1521.0379231 44.0001.0zm1.0752 85.6963H42.9251L41.85 85.6579 40.8134 85.5811 39.7384 85.4659 37.665 85.2355 35.5918 84.8516 33.5952 84.3909 32.597 84.1222 31.5987 83.815 30.6389 83.5079 28.7192 82.8167 27.7976 82.4327 26.8378 82.0104 25.9163 81.5881 24.1501 80.6667 22.3841 79.6685l-1.6895-1.0752L19.8884 78.0174l-1.6125-1.2286-.7681-.6143-1.5357-1.3055L14.5131 73.4869 13.822 72.7575 13.1694 72.0278 12.4783 71.2984 11.8256 70.5305 11.2111 69.7627l-.6142-.8065L10.021 68.15 9.4451 67.3053 8.90761 66.4991 8.37011 65.6159l-.53749-.8446L7.37172 63.8883 6.87262 63.0052 6.45025 62.0836 5.98955 61.1622 5.60565 60.2408 5.22175 59.2808 4.83778 58.3593 4.53046 57.3995 4.18496 56.4011 3.91617 55.4413 3.37868 53.445l-.19192-1.0368L2.95638 51.41l-.30711-2.0733-.11519-1.0752-.0768-1.0365L2.38049 46.1498 2.3037 43.9999 2.38049 41.8497 2.45728 40.8131l.0768-1.075.11519-1.0368.30711-2.0732.23038-1.0367.19192-.9983.80628-2.9948L4.53046 30.6385 4.83778 29.6787 5.22175 28.7187 5.60565 27.7973 5.98955 26.8375 6.45025 25.9543 6.87262 25.0329 7.37172 24.1498 7.83262 23.2668 8.37011 22.3837 9.4451 20.6943l1.1518-1.6129L11.2111 18.2756 11.8256 17.5076 12.4783 16.7397 13.1694 15.9717l.6526-.7293 1.4207-1.4208L15.9721 13.1688 16.74 12.4781 17.5078 11.8632 18.2759 11.211 19.0821 10.5968l1.6125-1.1519 1.6895-1.0754L23.2671 7.83181 24.1501 7.37131 25.0333 6.87222 25.9163 6.45032 26.8378 5.98915 27.7976 5.60518 28.7192 5.22121 29.679 4.83723 30.6389 4.53046 31.5987 4.18441l2.9947-.80586L35.5918 3.18622l2.0732-.38397 1.0368-.15372 1.0366-.11513L40.8134 2.45688 41.85 2.38036 42.9251 2.34175h2.1502L46.1503 2.38036 47.2253 2.45688 48.2619 2.5334l1.0368.11513 1.075.15372L51.3721 2.99457l1.0365.19165L53.4068 3.37855l1.0366.26884L55.4035 3.91557 56.4017 4.18441 57.3615 4.53046 58.3599 4.83723 59.2813 5.22121 60.2411 5.60518 61.1625 5.98915 62.0841 6.45032 62.9671 6.87222 63.8886 7.37131 64.7716 7.83181 67.3057 9.4449 68.1506 10.0205 68.9565 10.5968l.8065.6142L70.531 11.8632 71.2989 12.4781 72.0283 13.1688 72.7576 13.8216l1.4208 1.4208L74.8698 15.9717l1.3049 1.5359L76.789 18.2756 78.0174 19.888 78.5937 20.6943l1.0754 1.6894L80.6673 24.1498 81.1278 25.0329 81.5883 25.9543 82.0108 26.8375 82.4334 27.7973 82.8174 28.7187 83.5081 30.6385 83.8156 31.5983 84.1224 32.5967 84.3912 33.5949 84.8517 35.5914 85.044 36.6281 85.3515 38.7013 85.4666 39.7381 85.5817 40.8131 85.6582 41.8497 85.6968 42.9249v2.1499L85.6582 46.1498 85.5817 47.225 85.4666 48.2615 85.3515 49.3367 85.044 51.41 84.8517 52.4082l-.2303 1.0368L84.3912 54.4432 84.1224 55.4413 83.8156 56.4011 83.5081 57.3995 83.1628 58.3593 82.8174 59.2808 82.4334 60.2408 81.5883 62.0836 81.1278 63.0052 80.6673 63.8883 80.1682 64.7713 79.6691 65.6159 79.1314 66.4991 78.5937 67.3053 78.0174 68.15 76.789 69.7627 76.1747 70.5305 75.5219 71.2984 74.8698 72.0278 73.4869 73.4869 72.0283 74.869 71.2989 75.5217 70.531 76.1745 69.763 76.7888 68.1506 78.0174 67.3057 78.5933l-1.6893 1.0752L64.7716 80.1676 63.8886 80.6667 62.9671 81.1274 62.0841 81.5881l-1.843.8446L59.2813 82.8167 58.3599 83.1624 57.3615 83.5079 56.4017 83.815 55.4035 84.1222 54.4434 84.3909 53.4068 84.6213 52.4086 84.8516 51.3721 85.0436 50.3737 85.2355 49.2987 85.3507 47.2253 85.5811 46.1503 85.6579 45.0753 85.6963z" fill="#004098"/><path fill-rule="evenodd" clip-rule="evenodd" d="M65.0406 42.771h5.3753L70.3387 41.5425 70.2236 40.3523 70.0319 39.162 69.4942 36.8584 69.1489 35.7064l-.384-1.075L68.3037 33.5181 67.3057 31.4447 66.7299 30.4465 66.1156 29.4865 65.4629 28.5267 64.7717 27.6053 64.0422 26.7222 63.2744 25.8776 62.4681 25.0328 61.6235 24.2649l-1.7663-1.4588-1.9198-1.3056L56.9392 20.9246 55.941 20.3871 54.8661 19.8879l-1.0752-.4605L52.7159 19.0049 51.6023 18.6595 50.4505 18.3521 49.2987 18.0832 46.9183 17.6992V16.5859L46.8031 16.548 46.3808 16.4329 45.9968 16.3557 45.4977 16.3171 44.8449 16.2785 44.0386 16.2405 43.194 16.2785 42.5413 16.3171 42.0038 16.3557 41.6199 16.3943 41.1974 16.5094 41.0822 16.548v1.1898l-1.1902.1538L38.7019 18.0832 37.5499 18.3521 36.3982 18.6595 35.2848 19.0435 34.2096 19.4274l-1.075.4605L32.098 20.3871 31.0612 20.9246 30.063 21.5389 29.1032 22.1532 28.1816 22.8061 27.2602 23.5355 26.3772 24.2649l-.8447.8063L24.7645 25.8776 23.9966 26.7222 23.2288 27.6053 22.5377 28.5267 21.885 29.4865 21.2706 30.4465 20.7331 31.4447 20.1956 32.4813 19.6965 33.5565l-.4223 1.0749L18.8903 35.7064 18.5447 36.8584 18.2376 38.0102 18.0071 39.162l-.192 1.1903L17.6615 41.5425 17.5847 42.771H22.96L23.0368 41.8112 23.152 40.8898 23.3055 39.9684 23.7663 38.2022 24.035 37.3191l.6143-1.6895L25.0334 34.8234 25.4557 34.0172 25.8781 33.2494 26.3772 32.4813 26.8763 31.7519 27.4138 31.0224 27.9515 30.3697 28.5657 29.6787l.6143-.6145 1.3053-1.2286L31.1764 27.2981 31.906 26.7606 32.6355 26.2615 33.4033 25.8008 34.1712 25.3783 34.9774 24.956 35.7839 24.6105 36.6285 24.2649 37.5116 23.9578 38.3564 23.6891 39.2394 23.4971 40.1608 23.3052 41.0822 23.1516v1.9963L41.0438 25.4167 40.8902 25.647 40.7366 25.916l-.2303.2303L40.2759 26.3383 40.0072 26.5303 39.7768 26.6454 39.5849 26.7222 38.8938 26.9142 37.5883 27.3749 36.9357 27.6437 36.283 27.9508l-1.2288.6143L33.9024 29.3331 33.3649 29.7171 32.789 30.1394 32.2899 30.5617 31.7524 31.0224 31.2915 31.5215 30.7924 32.0206 30.3701 32.5197 29.9094 33.0574 29.5255 33.6333 29.1032 34.1707 28.7577 34.785 28.4122 35.3609 28.0665 35.9752 27.7593 36.5897 27.4906 37.2423 27.0298 38.5477 26.7995 39.2388 26.4923 40.6211 26.3772 41.3121 26.262 42.0416 26.2236 42.771h4.7608L31.0612 42.1567l.2303-1.2285L31.4453 40.3523 31.6371 39.7764 31.8676 39.2004 32.3283 38.1254 32.6355 37.5879 33.2498 36.5897 33.5953 36.0905 33.9792 35.6296 34.7473 34.785 35.208 34.3627 35.6303 33.9788 36.091 33.5949 36.5901 33.2494 37.0508 32.942 37.5883 32.6351 38.0874 32.3277 38.6251 32.0974 39.7768 31.6367 40.3527 31.4447 40.9286 31.2912 41.5045 31.176 42.119 31.0608 42.7333 30.984 43.3859 30.9456h1.267L45.2674 30.984 45.8817 31.0608l1.2285.2304L47.6861 31.4447 48.262 31.6367 48.838 31.8671 49.913 32.3277 50.4505 32.6351 51.4489 33.2494 51.9096 33.5949 52.831 34.3627 53.6757 35.2073 54.0596 35.6296 54.4052 36.0905 55.0962 37.0888 55.4036 37.5879 55.941 38.6629 56.1714 39.2004 56.5553 40.3523 56.7089 40.9282 56.8624 41.5425 57.016 42.771h4.7994L61.6619 41.3121 61.5081 40.6211 61.3929 39.93 61.201 39.2388 61.009 38.5861 60.5483 37.2807 60.2411 36.628 59.9724 36.0138 59.6269 35.3993 58.9358 34.2475 58.5519 33.6716 57.7071 32.5967 56.325 31.0992 55.8259 30.6385l-1.6127-1.267L53.6373 28.9874 53.0614 28.6419 52.4471 28.2963 51.8328 27.9892 51.2184 27.7204 49.913 27.1829 48.6077 26.799 48.3773 26.6838 48.1084 26.5687 47.8396 26.4151 47.5325 26.2231 47.3022 25.9926 47.1102 25.7238 46.9566 25.4167 46.9183 25.2631V23.1516L47.8396 23.3052 48.7229 23.4587 49.6443 23.6891 50.4889 23.9578 51.3721 24.2649 52.2168 24.6105 53.023 24.956l.8063.4223L54.5971 25.8008 55.3652 26.2615 56.0946 26.7606 56.824 27.2981 57.5151 27.8356 58.2063 28.4115l.6143.6143 1.2286 1.3055L60.6251 31.0224 61.1242 31.7519 61.6619 32.4813 62.1226 33.2494 62.5449 34.0172 62.9672 34.8234 63.3512 35.6296 63.6967 36.4745 64.0038 37.3191 64.2726 38.2022 64.5029 39.0852 64.6949 39.9684 64.8484 40.8898 64.9636 41.8112 65.0406 42.771z" fill="#004098"/><path fill-rule="evenodd" clip-rule="evenodd" d="M63.62 51.7555 63.3513 52.3697 63.0441 53.0226l-.6143 1.2285L61.7004 55.4413 60.9323 56.5549 60.0493 57.6683 59.1279 58.6665 58.1678 59.6265 57.0928 60.5095l-1.1133.8446L54.8278 62.0835 53.6374 62.7746 52.9847 63.0819 52.3704 63.3507 51.7176 63.6194 51.0649 63.8498 50.3738 64.0801 49.7211 64.3105 47.6478 64.7712 46.9183 64.8864V61.6229L47.9935 61.3925 49.0685 61.1238 50.0667 60.7783l1.0366-.384L52.0633 59.9336 52.9847 59.4343 53.9061 58.8584 54.7508 58.2442 55.5956 57.5915 56.3634 56.862 57.0928 56.1325 57.8223 55.3261l.6143-.8446L59.0511 53.5984 59.5886 52.6771 60.0877 51.7555H54.5588L54.0981 52.3313 53.599 52.9072 53.0615 53.4449 52.4856 53.944 51.9097 54.4047 51.2952 54.8654 50.681 55.2493 49.9899 55.6333 49.3372 55.9404 48.6077 56.2477 47.8781 56.5165 47.1487 56.7084 46.3808 56.862 45.613 56.9772 44.8066 57.054 44.0003 57.0924 43.1941 57.054 42.4262 56.9772 41.62 56.862 40.8519 56.7084 40.1225 56.5165 39.393 56.2477 38.0107 55.6333 36.7054 54.8654 36.0911 54.4047 35.5152 53.944 34.9391 53.4449 34.44 52.9072 33.9409 52.3313 33.4802 51.7555h-5.567L28.4122 52.6771 28.9497 53.5984 29.564 54.4815l.6526.8446L30.9077 56.0942 31.6372 56.862 32.4052 57.5915 33.2499 58.2442 34.0945 58.8584 35.0159 59.4343 35.9375 59.9336 36.8974 60.3943 37.8955 60.7783 38.9323 61.1238 40.0073 61.3925 41.0823 61.6229V64.8864L40.3528 64.7712 38.9707 64.4641l-1.3823-.384L36.2831 63.6194 35.6304 63.3507 35.0159 63.0435 34.3633 62.7362 33.1731 62.0835 32.0213 61.3157 30.9077 60.5095 29.8711 59.6265 28.8729 58.6665 27.9515 57.6299 27.1067 56.5549 26.3005 55.4413 25.6094 54.2511 24.9567 53.0226 24.6878 52.3697 24.419 51.7555H18.6984L19.0439 52.7538 19.4278 53.752 19.8117 54.7118 20.2724 55.6716 20.7331 56.5933l1.075 1.766L22.3842 59.2424 22.9985 60.0872 23.6512 60.8934 24.3039 61.6613 25.0335 62.4291 25.763 63.1587 27.2987 64.5409 28.9881 65.7694 29.8327 66.3455 30.7157 66.883 32.5588 67.8812 33.5186 68.3036 34.5168 68.6875 35.4768 69.0714 36.5134 69.3787 37.5116 69.6859l1.0752.2303L39.6234 70.1082 40.6984 70.2617 41.8119 70.3769 42.8869 70.4537h2.227L46.2273 70.3769 47.3022 70.2617 48.3774 70.1082 49.4524 69.9162l1.0366-.2303L51.5256 69.3787 52.524 69.0714 53.5222 68.6875 54.482 68.3036 55.442 67.8812 57.2848 66.883 58.1678 66.3455 59.0511 65.7694l.8446-.6143L60.702 64.5409 61.5082 63.8498 62.2379 63.1587 63.0057 62.4291l1.3821-1.5357L65.0023 60.0872 65.6165 59.2424 66.2308 58.3593 66.7683 57.4763 67.2674 56.5933 67.7668 55.6716 68.6113 53.752 69.3027 51.7555H63.62z" fill="#004098"/><path fill-rule="evenodd" clip-rule="evenodd" d="M47.8396 44.9212 46.8414 44.998 46.4192 45.1131 45.6513 45.4203 45.3442 45.5739 44.8065 45.958 44.4225 46.3419 44.1538 46.6874 44.0002 46.9178 43.9618 46.9946 43.6931 46.6107l-.6143-.6145L42.7717 45.7658 42.4261 45.5739 42.119 45.3819 41.7734 45.2667 41.4661 45.1515 40.8902 44.998 40.3911 44.9212H17.5847L17.6231 46.1114 17.7767 47.2633 17.9303 48.4535 18.1608 49.6053H40.3527L40.3143 49.5669 40.6983 49.6053 41.0822 49.6823 41.5431 49.7974 42.0422 49.9894 42.5413 50.2582 43.0404 50.6037 43.2708 50.834 43.5395 51.0644 43.7315 51.3331 43.9618 51.6402 44.1538 51.3331 44.3842 51.026 44.7297 50.6805 45.1906 50.3349 45.4593 50.143 45.7665 49.9894 46.112 49.8358 46.4959 49.7207 46.9183 49.6439 47.3789 49.5669V49.6053H69.8782L70.0699 48.4535 70.2622 47.2633 70.3773 46.1114 70.4538 44.9212H47.8396z" fill="#004098"/><path fill-rule="evenodd" clip-rule="evenodd" d="M13.822 51.5635 7.44856 52.7922l-.26878-1.3439L7.10298 50.9876 7.14138 50.6421 7.17978 50.4885 7.29497 50.2966 7.41016 50.143 7.56368 49.951 7.75567 49.7974 7.98605 49.6439 8.52368 49.3751 9.17637 49.1446l.80627-.192L10.4817 48.8374 10.9808 48.799H11.4415L11.864 48.8374 12.2479 48.8758 12.5551 48.9526 12.8238 49.0678 13.0542 49.2214 13.2462 49.4135 13.3613 49.6053 13.4765 49.8358 13.5533 50.143 13.822 51.5635zM12.9774 51.1796 12.8238 50.3349 12.747 50.1046 12.6703 49.9126 12.4399 49.6053 12.2863 49.5285 12.0944 49.4517 11.9024 49.3751H11.672L11.2881 49.3367 10.5201 49.4135 9.59867 49.5669 9.21476 49.6823 8.86926 49.8358 8.56208 49.9894 8.33176 50.143 8.13957 50.2966 8.02438 50.4501 7.90946 50.6421V50.7573L7.87106 50.9108 7.90946 51.2948 8.10118 52.1394 12.9774 51.1796z" fill="#004098"/><path fill-rule="evenodd" clip-rule="evenodd" d="M13.1309 47.6857 6.52701 46.534 6.48861 45.9581l6.41189-1.9966L12.9389 44.5757 10.9807 45.1516l.1152 1.6511L13.0925 47.1482 13.1309 47.6857zM10.3665 46.6875 10.2897 45.3436 8.5236 45.8813 7.1797 46.2268 7.79398 46.2652 8.44687 46.3804 10.3665 46.6875z" fill="#004098"/><path fill-rule="evenodd" clip-rule="evenodd" d="M12.939 43.232 6.45026 42.8481V42.3104L12.2095 42.6559 12.3247 40.6979 13.0926 40.7363 12.939 43.232z" fill="#004098"/><path fill-rule="evenodd" clip-rule="evenodd" d="M6.87247 38.2405 13.3204 39.2002 13.246 39.6997 6.79811 38.74 6.87247 38.2405z" fill="#004098"/><path fill-rule="evenodd" clip-rule="evenodd" d="M13.3997 38.3557 7.44853 35.2842 7.60205 34.7467 14.3211 34.7083 14.1676 35.2842H12.1328l-.384 1.6126L13.5533 37.7798 13.3997 38.3557zm-2.3037-1.766.3073-1.3055L9.56024 35.2458 8.17794 35.169 9.32992 35.7065 11.096 36.5897z" fill="#004098"/><path fill-rule="evenodd" clip-rule="evenodd" d="M14.5514 34.0172 8.48516 31.5983 8.67715 31.0992 14.2443 31.0609 9.48342 29.1411 9.63694 28.6804l6.06646 2.4188L15.5114 31.5983 9.98252 31.6367l4.76108 1.9198L14.5514 34.0172z" fill="#004098"/><path fill-rule="evenodd" clip-rule="evenodd" d="M13.131 22.5755 13.4381 22.1148l3.1484 2.0734L17.2776 24.6873 17.8151 25.148l.1919.2303L18.1608 25.6087 18.276 25.8776 18.3144 26.1078 18.3526 26.3383 18.3144 26.6071 18.2376 26.8374 18.1224 27.0678 17.8919 27.3365 17.6231 27.5669 17.4696 27.6437 17.2776 27.682 16.9321 27.7204 16.5481 27.6437 16.049 27.4901 15.4731 27.1829 14.8588 26.799l-3.1484-2.0733L11.9792 24.3034l3.1484 2.0733L15.7803 26.7606 16.2794 26.991 16.4713 27.0294 16.6249 27.0678h.192L16.9704 27.0294 17.0856 26.991 17.2392 26.9142 17.3544 26.799 17.4312 26.6838 17.5463 26.4535 17.6231 26.2232V25.9926L17.5463 25.7622 17.3928 25.5319 17.124 25.2632 16.7401 24.956 16.2794 24.6489 13.131 22.5755z" fill="#004098"/><path fill-rule="evenodd" clip-rule="evenodd" d="M19.6196 24.7641l-4.9143-4.3002L15.0508 20.0417l5.2215 1.8044-3.8394-3.3789L16.7785 18.0832l4.8762 4.3005L21.3089 22.8061l-5.2215-1.8047 3.8394 3.3788L19.6196 24.7641z" fill="#004098"/><path fill-rule="evenodd" clip-rule="evenodd" d="M18.5831 16.3557l4.447 4.7537L22.653 21.4621l-4.447-4.7536L18.5831 16.3557z" fill="#004098"/><path fill-rule="evenodd" clip-rule="evenodd" d="M24.8797 19.5426l-5.2218-4.2237L20.1187 14.9735l3.7242 3.1097L24.6492 18.8126 24.1501 17.853l-2.0348-4.4153L22.576 13.0923l2.7261 6.1429L24.8797 19.5426z" fill="#004098"/><path fill-rule="evenodd" clip-rule="evenodd" d="M27.2218 17.853l-3.2636-5.6438 2.4957-1.4593L26.8379 11.4027l-2.035 1.1905.9984 1.7276 1.8812-1.1134.4223.6915-1.9196 1.0747 1.1134 1.9198 2.1118-1.1905L29.7943 16.3557 27.2218 17.853z" fill="#004098"/><path fill-rule="evenodd" clip-rule="evenodd" d="M30.754 15.8566 28.2969 9.82886l1.6125-.65282L30.1781 9.06092 30.3701 9.02232H30.754L30.9075 9.06092 31.3684 9.40629 31.5218 9.59861 31.6756 9.79026l.2303.46054L32.0211 10.5968 32.0979 10.9036 32.1363 11.211 32.0979 11.4799 32.0211 11.748 31.9059 11.979 31.7523 12.1706 31.5602 12.3243 31.7907 12.4395l.192.1151L32.3666 12.8234 32.7122 13.1688l1.3053 1.3822-.6143.2302L32.405 13.7451 31.9059 13.2074 31.5602 12.9386 31.33 12.7848 31.1379 12.7083H30.9459L30.7156 12.7469 30.1397 12.9772l1.1134 2.6871L30.754 15.8566zM29.871 12.2857 30.9075 11.8632 31.2147 11.7101 31.4068 11.5564 31.4834 11.3261 31.5218 11.0959V10.7885L31.4068 10.4817 31.2914 10.2508 31.1763 10.0977 31.0611 9.94399 30.9075 9.82886 30.6004 9.75166h-.192L30.2165 9.82886l-1.1518.46054.8063 1.9963z" fill="#004098"/><path fill-rule="evenodd" clip-rule="evenodd" d="M34.1327 12.3243 34.5934 12.132 34.7856 12.5545 34.9773 12.8999 35.2079 13.0922 35.4766 13.246 35.7838 13.3225H35.9373L36.0909 13.2839 36.3213 13.2074 36.6284 12.9771 36.7436 12.8234 36.782 12.6317 36.8204 12.4008V12.2092L36.782 11.9789 36.7052 11.7101 36.5516 11.4798 36.3981 11.3261l-.192-.1151L35.8606 11.1338 35.2847 11.0573 34.7856 10.9421 34.5934 10.9035 34.4014 10.827 34.1327 10.6347 33.9023 10.3658 33.7104 10.0205 33.5952 9.63649 33.5184 9.25252 33.48 8.90715 33.5184 8.56178 33.6336 8.29293 33.7872 8.02408 33.9791 7.79383 34.2095 7.64011 34.4782 7.52498 34.7088 7.48638H34.9007L35.1311 7.52498 35.3231 7.56358 35.4766 7.64011l.192.11512L35.8222 7.90896 35.9757 8.1006 36.1293 8.29293 36.2445 8.52317 36.3213 8.75342 36.4365 9.06087 35.9373 9.21459 35.8606 8.94575 35.707 8.71482 35.5918 8.52317 35.2847 8.29293 34.9007 8.21573 34.7088 8.25433 34.5166 8.33085 34.3247 8.44665 34.2095 8.56178 34.0943 8.71482 34.0175 9.02227V9.21459L34.0559 9.44484 34.0943 9.59857 34.1711 9.75161 34.2863 9.86674 34.3631 9.98254 34.5166 10.0591 34.7088 10.1356 35.2463 10.2128 35.7838 10.2893 36.1293 10.3658 36.3213 10.443 36.5132 10.5582 36.6668 10.7119 36.8204 10.8649 36.974 11.0573 37.0891 11.2875 37.2427 11.748 37.3195 12.0168 37.3579 12.2857V12.5545L37.3195 12.7848 37.2811 13.0536 37.2043 13.246 37.0891 13.4376 36.974 13.6299 36.8204 13.7451 36.6668 13.8988 36.4748 13.9753 36.2445 14.0518 35.899 14.0904H35.5918L35.2463 13.9753 34.9773 13.783 34.7088 13.5148 34.4782 13.1688 34.2863 12.7848 34.1327 12.3243z" fill="#004098"/><path fill-rule="evenodd" clip-rule="evenodd" d="M38.8554 13.399 37.857 6.94938 38.3563 6.87218l1.0366 6.41172L38.8554 13.399z" fill="#004098"/><path fill-rule="evenodd" clip-rule="evenodd" d="M41.6582 13.0537 41.274 7.2948l-1.3053.11513L39.8919 6.64198l3.1868-.23024L43.1171 7.17968l-1.3054.07653.384 5.75959L41.6582 13.0537z" fill="#004098"/><path fill-rule="evenodd" clip-rule="evenodd" d="M45.4976 12.9772 45.6511 10.2508 44.3456 6.37313 44.9985 6.41173l.6526 2.03498L45.9966 9.56003 46.4957 8.44671 47.3788 6.56545 47.9933 6.60337 46.1886 10.2508 46.035 13.0158 45.4976 12.9772z" fill="#004098"/><path fill-rule="evenodd" clip-rule="evenodd" d="M50.6423 10.3659 50.8726 9.63656 51.1414 8.98374 51.2949 8.71489 51.4487 8.44672 51.6405 8.21579 51.8326 8.02415l.384-.30745L52.4085 7.60157 52.6005 7.52505 52.7925 7.48645 52.9844 7.44853h.192L53.3683 7.48645 53.5987 7.56365 53.8291 7.7167 54.021 7.90902 54.213 8.10067 54.3281 8.36952 54.4433 8.67697 54.5201 9.02234 54.5585 9.40631 54.5969 9.82888 54.5585 10.2894 54.4817 10.7499 54.3665 11.249 54.1746 11.9018 53.9442 12.4781 53.6371 12.9772 53.33 13.3991 53.0996 13.5914 52.7157 13.8988l-.384.1531L52.1014 14.0905 51.9094 14.0519H51.6789L51.4871 13.9754l-.1922-.1152L51.1414 13.7451 50.9878 13.5914 50.8726 13.3991 50.7574 13.2074 50.6423 12.9386 50.5655 12.6697 50.4887 12.1706V11.595L50.5271 11.0187 50.6423 10.3659zM51.1798 10.5196 51.0646 11.0959 51.0262 11.595V12.0169L51.103 12.4395 51.2182 12.7849 51.4103 13.0158 51.6021 13.2074 51.871 13.3226 52.1398 13.3612 52.4469 13.284 52.7157 13.1309 52.9844 12.9 53.2532 12.5932 53.4835 12.1706l.192-.4991L53.8291 11.0959 53.9442 10.6734 53.9826 10.2894 54.021 9.94401V9.56003L53.9442 9.09886 53.8675 8.86861 53.7523 8.67697 53.6371 8.48464 53.5219 8.36952 53.3683 8.25439 53.1764 8.21579 52.9076 8.17787 52.6005 8.25439 52.3317 8.36952 52.063 8.59976 51.7942 8.94581 51.5637 9.36771 51.3719 9.90541 51.1798 10.5196z" fill="#004098"/><path fill-rule="evenodd" clip-rule="evenodd" d="M54.29 14.6661l2.4189-6.06636 2.4957.99887L58.8975 10.3279l-1.9966-.8065L56.1714 11.4027l1.7277.6914L57.592 12.7848 55.8643 12.132l-1.075 2.7264L54.29 14.6661z" fill="#004098"/><path fill-rule="evenodd" clip-rule="evenodd" d="M59.7803 17.2388 62.7368 12.3243 61.6234 11.6329 62.0073 10.9808l2.7259 1.651L64.3109 13.2839 63.1975 12.5932 60.241 17.5076 59.7803 17.2388z" fill="#004098"/><path fill-rule="evenodd" clip-rule="evenodd" d="M62.0841 18.6974 66.1154 13.5914l2.2654 1.7661L67.8817 15.9717 66.0387 14.513 64.8099 16.0868 66.5378 17.4311 66.077 18.0453 64.3108 16.701l-1.3437 1.7283 1.9196 1.4972L64.3876 20.5407 62.0841 18.6974z" fill="#004098"/><path fill-rule="evenodd" clip-rule="evenodd" d="M68.8033 21.6925 69.0336 22.23 68.5724 22.5371l-.384.192L67.8044 22.8828 67.4207 22.9596 66.8064 22.8828 66.5377 22.7291l-.2303-.192L66.1154 22.3452 66.0002 22.1148 65.9234 21.8844 65.8851 21.6157 65.9234 21.347 66.0002 21.0398 66.1154 20.6943 66.269 20.3488 66.4993 19.9652 66.7681 19.6191 67.4591 18.8512 67.843 18.5058 68.227 18.1984l.384-.2303L68.9564 17.7765 69.3024 17.6228 69.6478 17.5076 69.9546 17.469H70.2234L70.4922 17.5076 70.7611 17.5842 70.9913 17.6993 71.1837 17.8916 71.3367 18.1219 71.4525 18.3521 71.529 18.621V18.9284L71.4525 19.2738 71.3367 19.5812 71.1451 19.9652 70.9148 20.3488 70.4157 20.0803 70.5688 19.8115 70.7225 19.5812 70.7997 19.3117 70.8376 19.1201 70.8762 18.8898 70.8376 18.6975 70.7611 18.5444 70.646 18.3907 70.3385 18.1605 69.9546 18.0833H69.7629L69.5327 18.1219 69.3024 18.237 69.0336 18.3521 68.7647 18.5058 68.4573 18.6975 68.1505 18.9663 67.843 19.2352 67.4207 19.6963 67.0752 20.1182 66.8064 20.5023 66.6529 20.8863 66.5761 21.2318V21.5389L66.6529 21.8077 66.8064 22.038 66.9984 22.1532 67.152 22.23 67.3823 22.2684H67.6127L67.8816 22.23 68.1884 22.1148 68.4959 21.9228 68.8033 21.6925z" fill="#004098"/><path fill-rule="evenodd" clip-rule="evenodd" d="M68.1885 24.457 73.4489 20.6175 73.7557 21.0398 71.6056 22.6139l1.2291 1.6895L74.9848 22.7291 75.2916 23.1516l-5.2598 3.8395L69.7243 26.5688l2.4576-1.8431-1.1905-1.6509L68.4959 24.8793 68.1885 24.457z" fill="#004098"/><path fill-rule="evenodd" clip-rule="evenodd" d="M70.6846 28.0277l5.759-3.0716L76.6738 25.4168 73.1415 29.6787l4.5305-2.4189L77.9022 27.7205l-5.7589 3.0716L71.9131 30.293 75.4454 26.0311 70.9149 28.45l-.2303-.4223z" fill="#004098"/><path fill-rule="evenodd" clip-rule="evenodd" d="M75.5992 30.6769 76.3671 30.4465 77.0579 30.3313 77.3653 30.2929H77.9409L78.2098 30.3313 78.6703 30.4849 78.8626 30.5617 79.0542 30.6769 79.208 30.8304 79.4382 31.1376 79.5154 31.3296 79.5533 31.5599 79.5919 31.8287 79.5533 32.0974 79.3231 32.6351 79.1314 32.9037 78.9012 33.1342 78.5937 33.403 78.2484 33.6333 77.8644 33.8637 77.4418 34.0556 76.9813 34.2476 76.2899 34.4395 75.6757 34.5931 75.0994 34.6315 74.5624 34.5931 74.2935 34.5163 74.0633 34.4779 73.833 34.3628 73.6407 34.2476 73.487 34.1324 73.3339 33.9789 73.2188 33.7869 73.1416 33.5949 73.103 33.403 73.0651 33.1726v-.192L73.1416 32.7503 73.2188 32.5581 73.3339 32.3278 73.4491 32.1358 73.6407 31.9055 74.0247 31.5599 74.4852 31.2144 75.0229 30.9456 75.5992 30.6769zM75.7908 31.2144 75.2538 31.4063 74.7926 31.6751 74.4473 31.9055 74.1398 32.2126 73.9482 32.5197 73.833 32.7887 73.7944 33.0574 73.833 33.3262 73.9861 33.5949 74.1784 33.7869 74.4473 33.9405 74.7926 34.0172 75.2152 34.0556 75.6757 34.0172 76.2134 33.9021 76.789 33.7485 77.173 33.5949 77.5184 33.403 77.8644 33.2494 78.1332 33.019 78.3635 32.8653 78.5165 32.7119 78.6703 32.5197 78.7475 32.3278 78.824 32.1358 78.8626 31.9438v-.1919L78.824 31.5599 78.6703 31.3296 78.4786 31.0992 78.2098 30.984 77.8644 30.8688 77.4418 30.8304 76.9427 30.8688 76.405 31.0224 75.7908 31.2144z" fill="#004098"/><path fill-rule="evenodd" clip-rule="evenodd" d="M74.1011 36.2826 80.4749 34.9387 80.59 35.4377l-5.6052 1.2288L75.4067 38.5861 74.6388 38.7397 74.1011 36.2826z" fill="#004098"/><path fill-rule="evenodd" clip-rule="evenodd" d="M77.9795 39.2772 78.7474 39.2388 79.4381 39.3155 80.0524 39.4309 80.3212 39.5077 80.7824 39.7381 80.974 39.8916 81.1664 40.0068 81.2815 40.1604 81.3966 40.3523 81.4731 40.5059 81.5497 40.6979 81.5882 40.8898V41.1586L81.5117 41.4273 81.3966 41.6577 81.2429 41.8881 81.0506 42.1184 80.5135 42.5025 80.1682 42.6943 79.323 42.9248 78.8625 43.0016 78.3634 43.0784 77.672 43.1168 77.0192 43.0784 76.4822 42.9632 75.9445 42.771 75.484 42.5407 75.1765 42.2336 75.0228 42.0416 74.8698 41.6577 74.8312 41.4657v-.2303L74.8698 41.0434 75.0228 40.6595 75.3303 40.2756 75.5219 40.122 75.7528 39.9684 76.2133 39.6997 76.751 39.5077 77.3266 39.3539 77.9795 39.2772zM77.9795 39.8148 77.4418 39.8916 76.9427 40.0068 76.5201 40.1604 76.1747 40.3907 75.9059 40.6211 75.7142 40.8514 75.5991 41.1202 75.5605 41.389 75.637 41.6577 75.7908 41.9264 76.021 42.1184 76.3284 42.3104 76.7124 42.4641 77.1729 42.5407h1.1519L78.7474 42.5025 79.1314 42.4255 80.0524 42.1184 80.2447 41.9648 80.4363 41.8497 80.5901 41.6577 80.7052 41.5041 80.7824 41.3122 80.8203 41.1586v-.192L80.7824 40.6979 80.6287 40.4291 80.3984 40.2372 80.091 40.0452 79.707 39.8916 79.2079 39.8148H77.9795z" fill="#004098"/><path fill-rule="evenodd" clip-rule="evenodd" d="M77.5184 46.4187 78.287 46.4571 78.2098 48.1464 75.7908 47.9928 75.3689 47.5705 75.2152 47.3401 75.0615 47.1482 74.985 46.9178 74.9078 46.6874 74.8699 46.4955V46.2651L74.9078 45.9962 74.985 45.7274 75.138 45.4971 75.3304 45.2667 75.5606 45.0748 75.8294 44.8828 76.1362 44.7292 76.5202 44.614 76.9042 44.5373 77.3653 44.4605H78.3249L78.8626 44.4989 79.7843 44.7292 80.1683 44.8444 80.5516 45.0364 80.859 45.2283l.2303.192L81.2816 45.6506 81.4346 45.8812 81.5498 46.1114 81.5883 46.3803V46.8794L81.5118 47.1098 81.4346 47.2633 81.2044 47.5705 81.0507 47.724 80.8976 47.8392 80.6674 47.916 80.475 48.0312 80.2062 48.0696 79.5534 48.1848 79.4003 47.6857 79.8608 47.6089 80.2062 47.4937 80.475 47.3401 80.6674 47.1482 80.8204 46.9178 80.859 46.6107v-.192L80.8204 46.2267 80.7439 46.0346 80.6288 45.8426 80.475 45.689 80.2834 45.5355 80.0525 45.4203 79.7843 45.3051 79.4768 45.1899 79.1315 45.1131 78.7475 45.0364 78.3635 44.998H77.7493L77.2116 45.0364 76.7511 45.1515 76.3671 45.3051 76.0597 45.4971l-.2303.2303L75.7143 45.9962 75.6371 46.3035V46.4571L75.6757 46.6107 75.7908 46.9562 76.0211 47.2633 76.252 47.4937 77.4419 47.5705 77.5184 46.4187z" fill="#004098"/><path fill-rule="evenodd" clip-rule="evenodd" d="M74.4471 50.1046 77.1728 50.6805 81.1663 49.951 81.0125 50.5653 78.939 50.9492 77.787 51.1028l2.7644 1.8429L80.3983 53.5217 77.0577 51.1796 74.3699 50.6421 74.4471 50.1046z" fill="#004098"/><path fill-rule="evenodd" clip-rule="evenodd" d="M38.3944 55.3646H39.124V51.7171H38.3944v3.6475z" fill="#004098"/><path fill-rule="evenodd" clip-rule="evenodd" d="M43.3857 53.0994 43.3474 52.7922 43.2706 52.5233 43.117 52.2545l-.192-.2303L42.4644 51.7171 42.1572 51.6403 41.8499 51.6019 41.543 51.6403 41.2356 51.7171 40.9669 51.8706 40.7749 52.0242 40.583 52.2545 40.4294 52.5233 40.3526 52.7922 40.3142 53.0994 40.3526 53.4065 40.4294 53.6752 40.583 53.944 40.9669 54.3279 41.2356 54.4815 41.543 54.5583 41.8499 54.5966 41.3892 55.4029H42.1956L43.0786 53.9824 43.1938 53.7904 43.309 53.5601 43.3857 53.0994zM41.0053 53.2529V52.9072L41.0437 52.7538 41.1205 52.6385 41.3508 52.4081 41.5044 52.3313 41.6581 52.2929 41.8499 52.2545 42.0037 52.2929 42.1956 52.3313 42.3108 52.4081 42.4644 52.5233 42.6179 52.7538 42.6947 52.9072V53.2529L42.5411 53.5601 42.4644 53.6752 42.3108 53.7904 42.1956 53.8672 42.0037 53.9056H41.6581L41.5044 53.8672 41.3508 53.7904l-.2303-.2303L41.0437 53.4065 41.0053 53.2529z" fill="#004098"/><path fill-rule="evenodd" clip-rule="evenodd" d="M50.7959 53.3297V52.7922L50.5656 52.2545l-.192-.2303L50.1433 51.8706 49.8745 51.7171 49.5674 51.6403 49.2602 51.6019 48.9531 51.6403 48.6844 51.7171 48.4156 51.8706 48.1851 52.0242 47.9933 52.2545 47.8396 52.5233 47.7628 52.7922 47.7244 53.0994 47.7628 53.4065 47.8396 53.6752 47.9933 53.944 48.1851 54.1359 48.4156 54.3279 48.6844 54.4815 48.9531 54.5583 49.2602 54.5966 48.7995 55.4029h.8063L50.4888 53.9824 50.6424 53.7904 50.7959 53.3297zM48.4156 53.2529V52.9072L48.4924 52.7538 48.5692 52.6385 48.7995 52.4081 48.9531 52.3313 49.2602 52.2545 49.4522 52.2929 49.6058 52.3313 49.7593 52.4081 49.9897 52.6385 50.0665 52.7538 50.1049 52.9072V53.2529L50.0665 53.4065 49.9897 53.5601 49.7593 53.7904 49.6058 53.8672 49.4522 53.9056H49.1067L48.9531 53.8672 48.7995 53.7904l-.2303-.2303L48.4156 53.2529z" fill="#004098"/><path fill-rule="evenodd" clip-rule="evenodd" d="M47.1869 53.9057h-.4223V52.6001H46.0351V53.9057H44.768l1.152-2.419H45.2289l-1.6511 3.1868h2.4573v.8063H46.7646v-.8063h.4223V53.9057z" fill="#004098"/><path fill-rule="evenodd" clip-rule="evenodd" d="M48.9532 38.7013l-3.3403 3.7628H44.4225V41.5425L47.1486 37.6647l-3.3403-3.8395-3.3404 3.8395L43.194 41.5425V42.4641H42.0038l-3.3403-3.7628-4.1852 1.0368L36.4366 43.04h6.719v1.9964h1.3053V43.04H51.18l1.9582-3.3019-4.185-1.0368z" fill="#004098"/></svg>